<?xml version="1.0" encoding="utf-8"?>
<!-- Generator: Adobe Illustrator 16.0.3, SVG Export Plug-In . SVG Version: 6.00 Build 0)  -->
<!DOCTYPE svg PUBLIC "-//W3C//DTD SVG 1.1//EN" "http://www.w3.org/Graphics/SVG/1.1/DTD/svg11.dtd">
<svg version="1.1" id="Layer_1" xmlns="http://www.w3.org/2000/svg" xmlns:xlink="http://www.w3.org/1999/xlink" x="0px" y="0px"
	 width="15.267px" height="16px" viewBox="0 0 15.267 16" enable-background="new 0 0 15.267 16" xml:space="preserve">
<path fill="#e6e6e6" d="M13.856,0l-6.22,3.591L7.633,3.583L7.629,3.59L1.41,0H1.404h-0.59v0.596l0,0v0.01v0l2.998,5.192L0.814,7.53
	v0L0,8l0.814,0.47v0l2.998,1.73l-2.998,5.192l0,0v0.011l0,0v0.594h0.591L1.404,16H1.41l0.004-0.002l6.215-3.589l0.004,0.008
	l0.005-0.008l6.215,3.589L13.856,16h0.005l-0.001-0.002h0.592v-0.604l0,0l-2.998-5.193l2.998-1.731l0,0V7.53l0,0l-2.998-1.731
	l2.998-5.193v0V0h-0.591H13.856z M2.216,1.405l4.604,2.658L4.518,5.392L2.216,1.405z M4.925,6.097l1.886-1.089L5.553,7.186
	L4.925,6.097z M6.811,10.992L4.925,9.903l0.628-1.089L6.811,10.992z M1.628,8L4.22,6.504L5.083,8L4.22,9.496L1.628,8z M2.216,14.595
	l2.302-3.986l2.302,1.329L2.216,14.595z M7.633,10.788L6.023,8l1.609-2.788L9.243,8L7.633,10.788z M8.455,5.008l1.887,1.089
	L9.713,7.186L8.455,5.008z M10.342,9.903l-1.887,1.089l1.258-2.178L10.342,9.903z M13.051,14.595l-4.604-2.657l2.302-1.329
	L13.051,14.595z M13.638,8l-2.591,1.496L10.184,8l0.863-1.496L13.638,8z M10.749,5.392L8.447,4.063l4.604-2.658L10.749,5.392z
	 M15.267,8l-0.813,0.47V7.53L15.267,8z"/>
</svg>
