<?xml version="1.0" encoding="utf-8"?>
<!-- Generator: Adobe Illustrator 20.0.0, SVG Export Plug-In . SVG Version: 6.00 Build 0)  -->
<svg version="1.1" id="Layer_1" xmlns="http://www.w3.org/2000/svg" xmlns:xlink="http://www.w3.org/1999/xlink" x="0px" y="0px"
	 viewBox="0 0 382.5 310.8" style="enable-background:new 0 0 382.5 310.8;" xml:space="preserve">
<style type="text/css">
	.st0{fill:#E6E6E6;}
</style>
<path class="st0" d="M120.3,310.8c144.3,0,223.3-119.6,223.3-223.3c0-3.4,0-6.8-0.2-10.1c15.4-11.1,28.6-24.9,39.2-40.6
	c-14.3,6.3-29.5,10.5-45.1,12.3c16.4-9.8,28.6-25.2,34.5-43.4c-15.4,9.1-32.3,15.6-49.8,19c-29.7-31.6-79.4-33.1-111-3.4
	c-20.4,19.2-29,47.7-22.7,75c-63.1-3.2-121.9-33-161.7-82C5.8,50.2,16.4,96,50.9,119.1c-12.5-0.4-24.7-3.7-35.6-9.8c0,0.3,0,0.7,0,1
	c0,37.4,26.3,69.5,63,76.9c-11.6,3.2-23.7,3.6-35.4,1.3c10.3,32,39.7,53.9,73.3,54.5c-27.8,21.8-62.1,33.7-97.5,33.7
	c-6.2,0-12.5-0.4-18.7-1.1C35.9,298.6,77.6,310.8,120.3,310.8"/>
</svg>
